<?xml version="1.0" encoding="utf-8"?>
<!-- Generator: Adobe Illustrator 17.0.0, SVG Export Plug-In . SVG Version: 6.00 Build 0)  -->
<!DOCTYPE svg PUBLIC "-//W3C//DTD SVG 1.1//EN" "http://www.w3.org/Graphics/SVG/1.1/DTD/svg11.dtd">
<svg version="1.1" id="Layer_1" xmlns="http://www.w3.org/2000/svg" xmlns:xlink="http://www.w3.org/1999/xlink" x="0px" y="0px"
	 width="100px" height="100px" viewBox="0 0 100 100" enable-background="new 0 0 100 100" xml:space="preserve">
<g>
	<path fill="#FF4557" d="M64.127,38.164c0,1.363-1.105,2.469-2.469,2.469H38.342c-1.363,0-2.469-1.105-2.469-2.469l0,0
		c0-1.363,1.105-2.469,2.469-2.469h23.316C63.021,35.696,64.127,36.801,64.127,38.164L64.127,38.164z"/>
	<path fill="#FF4557" d="M64.127,50c0,1.363-1.105,2.469-2.469,2.469H38.342c-1.363,0-2.469-1.105-2.469-2.469l0,0
		c0-1.363,1.105-2.469,2.469-2.469h23.316C63.021,47.531,64.127,48.637,64.127,50L64.127,50z"/>
	<path fill="#FF4557" d="M64.127,61.836c0,1.363-1.105,2.469-2.469,2.469H38.342c-1.363,0-2.469-1.105-2.469-2.469l0,0
		c0-1.363,1.105-2.469,2.469-2.469h23.316C63.021,59.367,64.127,60.472,64.127,61.836L64.127,61.836z"/>
</g>
</svg>
