<?xml version="1.0" encoding="utf-8"?>
<!-- Generator: Adobe Illustrator 17.0.0, SVG Export Plug-In . SVG Version: 6.00 Build 0)  -->
<!DOCTYPE svg PUBLIC "-//W3C//DTD SVG 1.1//EN" "http://www.w3.org/Graphics/SVG/1.1/DTD/svg11.dtd">
<svg version="1.1" id="Layer_1" xmlns="http://www.w3.org/2000/svg" xmlns:xlink="http://www.w3.org/1999/xlink" x="0px" y="0px"
	 width="45px" height="35px" viewBox="0 0 45 35" enable-background="new 0 0 45 35" xml:space="preserve">
<path fill="#FF4557" d="M30.25,0H12.463C9.458,0,7,2.116,7,5.844v24.411C7,33.658,9.533,35,12.34,35h17.91
	c4.274,0,7.75-3.479,7.75-7.756V7.756C38,3.48,34.523,0,30.25,0z M10.577,29.258V5.496c0-1.193,0.521-1.915,1.638-1.915h2.831V17.7
	l4.173-2.585l3.777,2.585V3.581h5.459v27.84H12.463C11.346,31.421,10.577,30.303,10.577,29.258z M34.423,27.244
	c0,2.231-1.763,4.045-3.967,4.156V3.602c2.204,0.11,3.967,1.923,3.967,4.155V27.244z"/>
</svg>
