<?xml version="1.0" encoding="utf-8"?>
<!-- Generator: Adobe Illustrator 17.0.0, SVG Export Plug-In . SVG Version: 6.00 Build 0)  -->
<!DOCTYPE svg PUBLIC "-//W3C//DTD SVG 1.1//EN" "http://www.w3.org/Graphics/SVG/1.1/DTD/svg11.dtd">
<svg version="1.1" id="Layer_1" xmlns="http://www.w3.org/2000/svg" xmlns:xlink="http://www.w3.org/1999/xlink" x="0px" y="0px"
	 width="45px" height="35px" viewBox="0 0 45 35" enable-background="new 0 0 45 35" xml:space="preserve">
<g>
	<path fill="#FF4557" d="M11.67,31.165C11.67,35,14.758,35,16.416,35H29c2.296,0,4.42-0.465,4.42-3.835V7.799H11.67V31.165z
		 M15.67,11.792h13.75V31c-0.117,0.004-0.256,0.007-0.42,0.007H16.416c-0.32,0-0.562-0.006-0.746-0.014V11.792z"/>
	<polygon fill="#FF4557" points="32.5,1.997 32.5,0 12.5,0 12.5,1.997 9.5,1.997 9.5,5.989 12.5,5.989 32.5,5.989 35.5,5.989 
		35.5,1.997 	"/>
	<rect x="18.25" y="14.878" fill="#FF4557" width="2" height="12.885"/>
	<rect x="24.375" y="14.878" fill="#FF4557" width="2" height="12.885"/>
</g>
</svg>
