<?xml version="1.0" encoding="utf-8"?>
<!-- Generator: Adobe Illustrator 17.0.0, SVG Export Plug-In . SVG Version: 6.00 Build 0)  -->
<!DOCTYPE svg PUBLIC "-//W3C//DTD SVG 1.1//EN" "http://www.w3.org/Graphics/SVG/1.1/DTD/svg11.dtd">
<svg version="1.1" id="Layer_1" xmlns="http://www.w3.org/2000/svg" xmlns:xlink="http://www.w3.org/1999/xlink" x="0px" y="0px"
	 width="45px" height="35px" viewBox="0 0 45 35" enable-background="new 0 0 45 35" xml:space="preserve">
<g>
	<g>
		<g>
			<path fill="#FF4557" d="M25.36,32.5H13.014c-1.677,0-3.091-0.993-4.124-1.719c-0.242-0.17-0.561-0.393-0.736-0.49H7.479
				c-0.832,0-1.508-0.678-1.508-1.514V18.014c0-0.813,0.64-1.482,1.45-1.514l1.126-0.043l3.012-4.035
				c0.343-0.717,0.685-1.355,1.009-1.956c0.94-1.746,1.562-2.9,1.562-4.816c0-1.796,1.727-3.15,4.018-3.15
				c2.233,0,3.793,1.387,3.793,3.374c0,0.37,0.006,0.766,0.012,1.18c0.028,2.049,0.063,4.428-0.48,6.379h5.802
				c1.221,0,4.063,0.842,4.063,8.643C31.338,27.265,29.489,32.5,25.36,32.5z M8.987,27.367c0.546,0.171,1.06,0.531,1.629,0.932
				c0.744,0.523,1.67,1.172,2.397,1.172H25.36c1.633,0,2.962-3.317,2.962-7.394c0-4.127-0.901-5.495-1.143-5.635l-8.165,0.021
				c-0.61,0-1.159-0.369-1.393-0.935c-0.234-0.566-0.105-1.217,0.327-1.651c1.07-1.075,1.021-4.508,0.988-6.781
				c-0.006-0.429-0.012-0.839-0.012-1.223c0-0.32-0.595-0.345-0.777-0.345c-0.488,0-0.859,0.159-1.003,0.262
				c-0.032,2.603-0.951,4.311-1.924,6.116c-0.321,0.596-0.663,1.229-1.001,1.949c-0.043,0.093-0.096,0.18-0.157,0.262l-3.534,4.733
				c-0.273,0.365-0.695,0.587-1.148,0.604l-0.394,0.015V27.367z"/>
		</g>
		<g>
			<rect x="1" y="17.287" fill="#FF4557" width="3.012" height="12.701"/>
		</g>
	</g>
	<g>
		<g>
			<rect x="35.959" y="21.579" fill="#FF4557" width="8.041" height="2.321"/>
		</g>
		<g>
			<rect x="38.824" y="18.702" fill="#FF4557" width="2.312" height="8.075"/>
		</g>
	</g>
</g>
</svg>
