<?xml version="1.0" encoding="utf-8"?>
<!-- Generator: Adobe Illustrator 17.0.0, SVG Export Plug-In . SVG Version: 6.00 Build 0)  -->
<!DOCTYPE svg PUBLIC "-//W3C//DTD SVG 1.1//EN" "http://www.w3.org/Graphics/SVG/1.1/DTD/svg11.dtd">
<svg version="1.1" id="Layer_1" xmlns="http://www.w3.org/2000/svg" xmlns:xlink="http://www.w3.org/1999/xlink" x="0px" y="0px"
	 width="45px" height="35px" viewBox="0 0 45 35" enable-background="new 0 0 45 35" xml:space="preserve">
<g>
	<path fill="#FF4557" d="M33.965,8.434V0H11.634v8.253C8.4,9.093,6,12.064,6,15.601v7.066c0,4,3.063,7.278,6.934,7.567V35h19.732
		v-4.836C36.247,29.599,39,26.458,39,22.667v-7.066C39,12.286,36.891,9.467,33.965,8.434z M29.569,31.933H16.172V24.73h13.396
		V31.933z M35.545,22.667c0,1.846-1.221,3.392-2.879,3.898v-5.193H12.934V26.7c-1.96-0.276-3.479-1.969-3.479-4.032v-7.066
		c0-2.254,1.808-4.086,4.032-4.086h18.028c2.221,0,4.03,1.832,4.03,4.086V22.667z"/>
	<ellipse fill="#FF4557" cx="30.48" cy="15.944" rx="1.583" ry="1.606"/>
</g>
</svg>
