<?xml version="1.0" encoding="utf-8"?>
<!-- Generator: Adobe Illustrator 17.0.0, SVG Export Plug-In . SVG Version: 6.00 Build 0)  -->
<!DOCTYPE svg PUBLIC "-//W3C//DTD SVG 1.1//EN" "http://www.w3.org/Graphics/SVG/1.1/DTD/svg11.dtd">
<svg version="1.1" id="Layer_1" xmlns="http://www.w3.org/2000/svg" xmlns:xlink="http://www.w3.org/1999/xlink" x="0px" y="0px"
	 width="100px" height="100px" viewBox="0 0 100 100" enable-background="new 0 0 100 100" xml:space="preserve">
<path fill="#25AAE3" d="M82.154,30.383c-4.436,1.981-6.54,1.981-6.54,1.981s4.209-4.771,4.79-6.639
	c0.579-1.857-0.409-0.986-0.409-0.986c-1.695,1.748-7.362,3.143-7.89,3.143c-1.287-1.631-5.958-4.77-11.742-3.838
	c-5.785,0.926-11.743,4.538-11.157,15.821c-10.792-0.716-20.221-4.671-27.074-13.671c-2.802,5.043-2.103,12.57,3.275,17.299
	c0.313,0.391,0.015,0.447-0.566,0.391c-0.582-0.063-3.21-0.992-4.497-1.98c0.054,3.2-0.408,10.063,9.521,13.557
	c0.816,0.289,0.566,0.443-0.054,0.443c-0.631,0-5.066,0-5.066,0s2.136,7.332,10.982,8.804c0.505,0.041,1.132,0,1.132,0.391
	c0,0.386-2.605,2.059-6.313,3.53c-3.054,1.209-7.582,1.785-12.701,1.785c0.842,0.627,1.909,1.24,3.157,1.821
	c13.007,6.786,36.909,4.955,46.989-7.548c6.868-8.531,9.451-18.703,7.694-26.926c-0.038-0.452-0.072-0.745-0.072-0.745
	S81.22,32.945,82.154,30.383z"/>
</svg>
