<?xml version="1.0" encoding="utf-8"?>
<!-- Generator: Adobe Illustrator 17.0.0, SVG Export Plug-In . SVG Version: 6.00 Build 0)  -->
<!DOCTYPE svg PUBLIC "-//W3C//DTD SVG 1.1//EN" "http://www.w3.org/Graphics/SVG/1.1/DTD/svg11.dtd">
<svg version="1.1" id="Layer_1" xmlns="http://www.w3.org/2000/svg" xmlns:xlink="http://www.w3.org/1999/xlink" x="0px" y="0px"
	 width="100px" height="100px" viewBox="0 0 100 100" enable-background="new 0 0 100 100" xml:space="preserve">
<path fill="#4B74A5" d="M11.576,33.503c-1.519-3.545,0-4.051,2.153-4.051s7.726,0,10.131,0c2.406,0,3.039,0.506,4.306,3.673
	c1.268,3.165,5.113,12.014,8.342,14.862c3.229,2.851,4.322,1.567,4.702-1.188c0.38-2.754,0.475-9.498,0-11.491
	c-0.475-1.995-2.279-3.704-4.18-3.989c-1.898-0.284,0.665-2.564,3.705-3.039c3.039-0.475,10.161-0.76,12.347,0
	c2.184,0.76,3.419,1.805,3.419,4.748c0,2.945,0,9.403,0,11.303c0,1.9,0.001,5.328,2.881,4.813c2.469-0.443,7.472-9.498,8.991-13.455
	c1.594-4.152,2.279-5.699,4.559-5.699c2.279,0,9.308,0,11.873,0c2.565,0,5.319-0.189,3.799,3.039
	c-1.52,3.229-5.225,8.834-8.928,13.394c-3.704,4.558-5.051,5.233-3.42,8.071c0.935,1.625,11.019,10.353,11.872,13.678
	c0.855,3.324-0.854,3.989-3.135,3.989c-2.278,0-9.686,0-11.87,0c-2.186,0-4.655-1.425-6.365-3.609
	c-1.709-2.185-4.938-7.124-7.787-6.554c-2.85,0.57-2.185,3.895-2.374,5.129c-0.19,1.234,1.044,5.034-3.99,5.034
	c-5.033,0-10.542,0.759-18.805-5.51C25.539,60.382,21.74,52.974,18.32,47.275C14.901,41.577,11.576,33.503,11.576,33.503z"/>
</svg>
