<?xml version="1.0" encoding="utf-8"?>
<!-- Generator: Adobe Illustrator 17.0.0, SVG Export Plug-In . SVG Version: 6.00 Build 0)  -->
<!DOCTYPE svg PUBLIC "-//W3C//DTD SVG 1.1//EN" "http://www.w3.org/Graphics/SVG/1.1/DTD/svg11.dtd">
<svg version="1.1" id="Layer_1" xmlns="http://www.w3.org/2000/svg" xmlns:xlink="http://www.w3.org/1999/xlink" x="0px" y="0px"
	 width="100px" height="100px" viewBox="0 0 100 100" enable-background="new 0 0 100 100" xml:space="preserve">
<path fill="#CCCCCC" d="M87.692,0H12.309C5.512,0,0,5.511,0,12.308v75.385C0,94.489,5.512,100,12.309,100h75.384
	C94.489,100,100,94.489,100,87.692V12.308C100,5.511,94.489,0,87.692,0z M61.191,34.091c-1.523,0-4.714,0-6.302,0
	c-2.602,0-4.318,1.924-4.318,4.385c0,2.704,0,6.311,0,6.311h10.556v9.529H50.571v25.908H37.514V54.316h-6.995v-9.529h7.126
	c0,0,0-2.126,0-6.77c0-7.842,5.088-14.752,13.661-14.752c5.851,0,8.083,0,9.886,0V34.091z"/>
</svg>
