<?xml version="1.0" encoding="utf-8"?>
<!-- Generator: Adobe Illustrator 17.0.0, SVG Export Plug-In . SVG Version: 6.00 Build 0)  -->
<!DOCTYPE svg PUBLIC "-//W3C//DTD SVG 1.1//EN" "http://www.w3.org/Graphics/SVG/1.1/DTD/svg11.dtd">
<svg version="1.1" id="Layer_1" xmlns="http://www.w3.org/2000/svg" xmlns:xlink="http://www.w3.org/1999/xlink" x="0px" y="0px"
	 width="100px" height="100px" viewBox="0 0 100 100" enable-background="new 0 0 100 100" xml:space="preserve">
<path fill="#CCCCCC" d="M87.692,0H12.309C5.512,0,0,5.511,0,12.308v75.385C0,94.489,5.512,100,12.309,100h75.384
	C94.489,100,100,94.489,100,87.692V12.308C100,5.511,94.489,0,87.692,0z M33.431,66.604c-8.101,0-14.667-6.566-14.667-14.667
	s6.566-14.667,14.667-14.667c8.101,0,14.667,6.566,14.667,14.667S41.531,66.604,33.431,66.604z M68.431,66.604
	c-8.101,0-14.667-6.566-14.667-14.667s6.566-14.667,14.667-14.667c8.101,0,14.667,6.566,14.667,14.667S76.531,66.604,68.431,66.604z
	"/>
</svg>
