<?xml version="1.0" encoding="utf-8"?>
<!-- Generator: Adobe Illustrator 17.0.0, SVG Export Plug-In . SVG Version: 6.00 Build 0)  -->
<!DOCTYPE svg PUBLIC "-//W3C//DTD SVG 1.1//EN" "http://www.w3.org/Graphics/SVG/1.1/DTD/svg11.dtd">
<svg version="1.1" id="Layer_1" xmlns="http://www.w3.org/2000/svg" xmlns:xlink="http://www.w3.org/1999/xlink" x="0px" y="0px"
	 width="100px" height="100px" viewBox="0 0 100 100" enable-background="new 0 0 100 100" xml:space="preserve">
<path fill="#CCCCCC" d="M87.692,0H12.309C5.512,0,0,5.511,0,12.308v75.385C0,94.489,5.512,100,12.309,100h75.384
	C94.489,100,100,94.489,100,87.692V12.308C100,5.511,94.489,0,87.692,0z M88.569,34.061c-1.52,3.229-5.225,8.834-8.928,13.394
	c-3.704,4.558-5.051,5.233-3.42,8.071c0.935,1.625,11.019,10.354,11.872,13.678c0.855,3.324-0.854,3.989-3.135,3.989
	c-2.278,0-9.686,0-11.87,0c-2.186,0-4.655-1.425-6.365-3.609c-1.709-2.185-4.938-7.124-7.787-6.554
	c-2.85,0.57-2.185,3.895-2.374,5.129c-0.19,1.234,1.044,5.034-3.99,5.034c-5.033,0-10.542,0.758-18.805-5.51
	c-8.263-6.269-12.061-13.676-15.481-19.375c-3.419-5.698-6.744-13.772-6.744-13.772c-1.518-3.545,0-4.051,2.153-4.051
	c2.153,0,7.726,0,10.131,0c2.406,0,3.039,0.506,4.306,3.673c1.268,3.165,5.113,12.014,8.342,14.862
	c3.229,2.851,4.322,1.567,4.702-1.188c0.38-2.754,0.475-9.498,0-11.491c-0.475-1.995-2.279-3.704-4.18-3.99
	c-1.898-0.284,0.665-2.564,3.705-3.039c3.039-0.475,10.161-0.76,12.347,0c2.185,0.759,3.419,1.805,3.419,4.748
	c0,2.945,0,9.403,0,11.303s0.001,5.328,2.881,4.813c2.469-0.443,7.472-9.498,8.991-13.455c1.594-4.152,2.279-5.699,4.559-5.699
	c2.279,0,9.308,0,11.873,0C87.335,31.021,90.09,30.832,88.569,34.061z"/>
</svg>
