<?xml version="1.0" encoding="utf-8"?>
<!-- Generator: Adobe Illustrator 17.0.0, SVG Export Plug-In . SVG Version: 6.00 Build 0)  -->
<!DOCTYPE svg PUBLIC "-//W3C//DTD SVG 1.1//EN" "http://www.w3.org/Graphics/SVG/1.1/DTD/svg11.dtd">
<svg version="1.1" id="Layer_1" xmlns="http://www.w3.org/2000/svg" xmlns:xlink="http://www.w3.org/1999/xlink" x="0px" y="0px"
	 width="19px" height="19px" viewBox="0 0 19 19" enable-background="new 0 0 19 19" xml:space="preserve">
<path fill="#FF4557" d="M13.923,15.691l-1.268-4.442L16.5,8.144c-0.045-0.151-0.095-0.299-0.149-0.444l-4.935-0.071L9.703,3.01
	C9.638,3.008,9.573,3,9.507,3c-0.108,0-0.213,0.011-0.32,0.015L7.365,7.467L2.673,7.673C2.609,7.848,2.55,8.023,2.5,8.205
	l3.706,2.963l-1.2,4.461c0.159,0.122,0.32,0.24,0.49,0.349l3.963-2.808L13.482,16C13.634,15.903,13.78,15.798,13.923,15.691z"/>
</svg>
