<?xml version="1.0" encoding="utf-8"?>
<!-- Generator: Adobe Illustrator 17.0.0, SVG Export Plug-In . SVG Version: 6.00 Build 0)  -->
<!DOCTYPE svg PUBLIC "-//W3C//DTD SVG 1.1//EN" "http://www.w3.org/Graphics/SVG/1.1/DTD/svg11.dtd">
<svg version="1.1" id="Layer_1" xmlns="http://www.w3.org/2000/svg" xmlns:xlink="http://www.w3.org/1999/xlink" x="0px" y="0px"
	 width="19px" height="19px" viewBox="0 0 19 19" enable-background="new 0 0 19 19" xml:space="preserve">
<path fill="#FF4557" d="M18.892,11.059c-1.453-3.177-4.957-5.354-8.929-5.546c-4.332-0.208-8.281,1.958-9.855,5.389
	c-0.288,0.625,0.016,1.352,0.674,1.623c0.662,0.271,1.425-0.015,1.713-0.64c0.872-1.899,2.8-3.257,5.093-3.73
	C7.071,8.609,6.703,9.217,6.581,9.908c0.156-0.044,0.316-0.072,0.488-0.072c0.977,0,1.771,0.75,1.771,1.678
	c0,0.621-0.362,1.159-0.893,1.448C8.47,13.299,9.1,13.5,9.779,13.5c1.797,0,3.254-1.382,3.254-3.082
	c0-0.754-0.298-1.435-0.772-1.971c1.919,0.653,3.482,1.929,4.242,3.592c0.212,0.466,0.692,0.744,1.195,0.744
	c0.172,0,0.348-0.034,0.516-0.102C18.874,12.409,19.178,11.684,18.892,11.059z"/>
</svg>
